<svg version="1.2" xmlns="http://www.w3.org/2000/svg" viewBox="0 0 1080 1080" width="1080" height="1080">
	<style>
		.s0 { fill: #ffffff } 
	</style>
	<path id="Layer 7" class="s0" d="m655.43 298.65h-33.26l125.22-123.26h68.48l48.91-72.39 11.74 80.22 29.35 19.56 93.91-58.69-50.87 91.95 131.09 223.05-23.48 52.82h-48.91l-45-43.04h-56.74l-50.87-35.22 27.39 146.74 142.83 99.78-131.09 230.87-140.87-148.69-54.78-289.57-101.74-117.39zm-178.04 39.13l-477.4-74.35 154.57 125.22 408.91 25.44zm82.18 109.56l-360 3.91-58.7 117.4 170.22 74.34 289.56-66.52zm52.83 176.09l-244.57 80.22-56.73 66.52 140.86 86.08 207.4-82.17zm88.04 170.22l-185.87 84.13-17.61 66.52 246.52 31.3 88.05-41.08z"/>
</svg>
